<svg width="48" height="28" viewBox="0 0 48 28" fill="none" xmlns="http://www.w3.org/2000/svg">
<g id="Frame 1916">
<path id="detail" d="M1.60173 27.9784C2.18021 27.8198 2.67706 27.4537 2.994 26.9525C8.5287 18.9989 14.0376 11.0326 19.5208 3.05367C19.8688 2.5344 20.1653 1.52121 19.8946 1.16659C19.3799 0.538158 18.6346 0.133393 17.8191 0.0394022C12.9204 -0.0492527 8.02164 0.0394022 3.13581 0.0394022C2.71585 -0.00656155 2.29075 0.0406722 1.89186 0.17762C1.49296 0.314568 1.13044 0.537737 0.831038 0.83067C0.531632 1.1236 0.302974 1.47883 0.161927 1.87015C0.0208806 2.26147 -0.0289574 2.6789 0.0160887 3.09166C0.0160887 6.94182 0.0160887 10.7878 0.0160887 14.6295C0.0160887 16.5799 0.0160887 18.5303 0.0160887 20.4807C0.0160887 22.4311 0.0160887 24.3815 0.0160887 26.3192C-0.00969412 27.4718 0.480179 28.1303 1.60173 27.9784Z" fill="#BFBFBF"/>
<path id="detail_2" d="M29.6017 27.9784C30.1802 27.8198 30.6771 27.4537 30.994 26.9525C36.5287 18.9989 42.0376 11.0326 47.5208 3.05367C47.8688 2.5344 48.1653 1.52121 47.8946 1.16659C47.3799 0.538158 46.6346 0.133393 45.8191 0.0394022C40.9204 -0.0492527 36.0216 0.0394022 31.1358 0.0394022C30.7159 -0.00656155 30.2908 0.0406722 29.8919 0.17762C29.493 0.314568 29.1304 0.537737 28.831 0.83067C28.5316 1.1236 28.303 1.47883 28.1619 1.87015C28.0209 2.26147 27.971 2.6789 28.0161 3.09166C28.0161 6.94182 28.0161 10.7878 28.0161 14.6295C28.0161 16.5799 28.0161 18.5303 28.0161 20.4807C28.0161 22.4311 28.0161 24.3815 28.0161 26.3192C27.9903 27.4718 28.4802 28.1303 29.6017 27.9784Z" fill="#BFBFBF"/>
</g>
</svg>
